<?xml version="1.0" encoding="UTF-8"?>
<svg id="Layer_2" data-name="Layer 2" xmlns="http://www.w3.org/2000/svg" viewBox="0 0 1359 432">
  <path d="M399.56,156.54c-6.97.77-13.97,7.71-13.97,7.71l-65.43-.02v-37.47s-64.94-.53-70.69.71c-31.03,6.67-27.19,51.88,3.16,54.28,6.81.54,50.05.29,50.05.29v123.3h55.91l.09-98.11c-1.19-12.61-16.42-12.44-17.55-.71v53.76c0,11.75-20.96,12-20.95.15,0-5.98,0-78.39,0-78.39l64.73-.33s7.87,9.02,18.15,8.42c22.8-1.32,21.6-36.37-3.47-33.59ZM302.67,151.3v12.93h-50.72c-.2,0-3.08-1.71-3.51-2.08-5.47-4.8-3.38-15.8,3.81-17.9h50.42v7.04Z"/>
  <polygon points="485.96 177.81 522.26 177.81 522.26 275.74 547.05 275.74 547.05 177.81 583.36 177.81 583.36 157.14 485.96 157.14 485.96 177.81"/>
  <path d="M668.92,229.18c6.43-3.01,11.34-7.34,14.74-13,3.4-5.66,5.1-12.42,5.1-20.3s-1.67-14.66-5.01-20.47c-3.34-5.81-8.19-10.31-14.54-13.49-6.35-3.19-14-4.78-22.96-4.78h-46.79v118.6h25.07v-42.04h18.3l22.46,42.04h27.68l-25.17-46.08c.37-.16.75-.31,1.11-.47ZM624.53,177.64h16.91c4.83,0,8.83.71,12.02,2.11,3.19,1.41,5.56,3.47,7.12,6.17,1.56,2.7,2.35,6.02,2.35,9.96s-.78,7.16-2.35,9.79c-1.56,2.63-3.93,4.59-7.09,5.91-3.17,1.31-7.14,1.97-11.93,1.97h-17.02v-35.9Z"/>
  <polygon points="771.44 236.82 770.05 236.82 737.39 157.14 706.47 157.14 706.47 275.74 730.79 275.74 730.79 198.26 731.77 198.26 762.47 275.16 779.03 275.16 809.72 198.54 810.7 198.54 810.7 275.74 835.02 275.74 835.02 157.14 804.1 157.14 771.44 236.82"/>
  <path d="M925.1,229.18c6.43-3.01,11.34-7.34,14.74-13,3.4-5.66,5.1-12.42,5.1-20.3s-1.67-14.66-5.01-20.47c-3.34-5.81-8.19-10.31-14.54-13.49-6.35-3.19-14-4.78-22.96-4.78h-46.79v118.6h25.07v-42.04h18.3l22.46,42.04h27.68l-25.17-46.08c.37-.16.75-.31,1.11-.47ZM880.71,177.64h16.91c4.83,0,8.83.71,12.02,2.11,3.19,1.41,5.56,3.47,7.12,6.17,1.56,2.7,2.35,6.02,2.35,9.96s-.78,7.16-2.35,9.79c-1.56,2.63-3.93,4.59-7.09,5.91-3.17,1.31-7.14,1.97-11.93,1.97h-17.02v-35.9Z"/>
  <path d="M976.61,249.56c-3.82,0-7.09,1.35-9.81,4.05-2.72,2.7-4.08,5.95-4.08,9.73s1.36,7.09,4.08,9.82c2.72,2.72,5.99,4.08,9.81,4.08,2.51,0,4.81-.63,6.89-1.88,2.08-1.25,3.77-2.93,5.07-5.04,1.29-2.1,1.94-4.43,1.94-6.98,0-3.78-1.39-7.03-4.17-9.73-2.78-2.7-6.02-4.05-9.73-4.05Z"/>
  <path d="M1074.73,192.75c-3.53-2.43-7.57-4.23-12.1-5.39-4.54-1.16-9.28-1.74-14.22-1.74-7.1,0-13.35,1.07-18.73,3.21-5.39,2.14-9.78,5.19-13.17,9.15-3.4,3.96-5.68,8.64-6.83,14.04l22.82,1.85c.85-2.93,2.59-5.38,5.21-7.33,2.62-1.95,6.16-2.92,10.6-2.92,4.21,0,7.46,1,9.76,3.01,2.3,2.01,3.45,4.85,3.45,8.51v.35c0,1.89-.71,3.32-2.14,4.29-1.43.97-3.73,1.69-6.89,2.17-3.17.48-7.33.99-12.51,1.53-4.4.43-8.6,1.16-12.6,2.2-4,1.04-7.56,2.59-10.68,4.63-3.13,2.05-5.6,4.75-7.41,8.11-1.81,3.36-2.72,7.51-2.72,12.45,0,5.87,1.28,10.76,3.85,14.68,2.57,3.92,6.07,6.87,10.51,8.86,4.44,1.99,9.5,2.98,15.17,2.98,4.4,0,8.28-.59,11.64-1.77,3.36-1.18,6.23-2.82,8.63-4.92,2.39-2.1,4.3-4.55,5.73-7.33h.69v12.33h23.4v-59.99c0-5.29-1.02-9.83-3.07-13.64-2.05-3.8-4.83-6.92-8.37-9.35ZM1061.67,243.94c0,3.13-.79,5.93-2.37,8.4-1.58,2.47-3.76,4.43-6.54,5.88-2.78,1.45-5.98,2.17-9.61,2.17s-6.9-.88-9.35-2.63c-2.45-1.76-3.68-4.31-3.68-7.67,0-2.32.6-4.26,1.79-5.82,1.2-1.56,2.88-2.81,5.04-3.73,2.16-.93,4.69-1.6,7.59-2.03,1.35-.19,2.86-.41,4.52-.67,1.66-.25,3.32-.54,4.98-.87,1.66-.33,3.16-.69,4.49-1.1,1.33-.41,2.38-.86,3.16-1.36v9.44Z"/>
  <rect x="1105.33" y="186.79" width="24.67" height="88.95"/>
  <path d="M1117.73,175.32c3.67,0,6.8-1.23,9.41-3.68,2.61-2.45,3.91-5.39,3.91-8.83s-1.3-6.37-3.91-8.8c-2.61-2.43-5.74-3.65-9.41-3.65s-6.76,1.23-9.38,3.68c-2.63,2.45-3.94,5.4-3.94,8.83s1.3,6.37,3.91,8.8,5.74,3.65,9.41,3.65Z"/>
</svg>